<?xml version="1.0" encoding="utf-8"?>
<!DOCTYPE svg PUBLIC "-//W3C//DTD SVG 20010904//EN" "http://www.w3.org/TR/2001/REC-SVG-20010904/DTD/svg10.dtd">
<svg version="1.0" xmlns="http://www.w3.org/2000/svg" width="601px" height="278px" viewBox="0 0 601 278" preserveAspectRatio="xMidYMid meet">
   <defs>
      <linearGradient id="lg0" gradientUnits="userSpaceOnUse" x1="4.159734%" y1="50.35971%" x2="93.17804%" y2="50.35971%">
         <stop offset="0%" style="stop-color:rgb(166,145,101);"></stop>
         <stop offset="1%" style="stop-color:rgb(169,142,79);"></stop>
         <stop offset="3%" style="stop-color:rgb(172,144,68);"></stop>
         <stop offset="4%" style="stop-color:rgb(179,141,58);"></stop>
         <stop offset="5%" style="stop-color:rgb(181,140,54);"></stop>
         <stop offset="6%" style="stop-color:rgb(179,141,51);"></stop>
         <stop offset="7%" style="stop-color:rgb(179,141,57);"></stop>
         <stop offset="8%" style="stop-color:rgb(182,141,50);"></stop>
         <stop offset="10%" style="stop-color:rgb(178,140,59);"></stop>
         <stop offset="11%" style="stop-color:rgb(180,140,56);"></stop>
         <stop offset="19%" style="stop-color:rgb(218,196,115);"></stop>
         <stop offset="21%" style="stop-color:rgb(231,209,127);"></stop>
         <stop offset="24%" style="stop-color:rgb(246,231,158);"></stop>
         <stop offset="25%" style="stop-color:rgb(247,234,161);"></stop>
         <stop offset="30%" style="stop-color:rgb(228,204,129);"></stop>
         <stop offset="40%" style="stop-color:rgb(185,144,52);"></stop>
         <stop offset="49%" style="stop-color:rgb(181,142,51);"></stop>
         <stop offset="51%" style="stop-color:rgb(190,152,67);"></stop>
         <stop offset="66%" style="stop-color:rgb(247,235,169);"></stop>
         <stop offset="77%" style="stop-color:rgb(203,174,93);"></stop>
         <stop offset="78%" style="stop-color:rgb(203,174,94);"></stop>
         <stop offset="79%" style="stop-color:rgb(189,157,71);"></stop>
         <stop offset="81%" style="stop-color:rgb(192,160,79);"></stop>
         <stop offset="82%" style="stop-color:rgb(177,143,55);"></stop>
         <stop offset="83%" style="stop-color:rgb(172,138,50);"></stop>
         <stop offset="86%" style="stop-color:rgb(165,120,52);"></stop>
         <stop offset="88%" style="stop-color:rgb(157,112,45);"></stop>
         <stop offset="91%" style="stop-color:rgb(145,99,40);"></stop>
         <stop offset="92%" style="stop-color:rgb(143,92,35);"></stop>
         <stop offset="94%" style="stop-color:rgb(136,85,36);"></stop>
         <stop offset="97%" style="stop-color:rgb(127,67,29);"></stop>
         <stop offset="99%" style="stop-color:rgb(120,62,25);"></stop>
         <stop offset="100%" style="stop-color:rgb(114,65,37);"></stop>
      </linearGradient>
   </defs>
 <g fill="#d8bb66">
  <path fill="url(#lg0)" d="M67 259.9 c0 -0.5 3.7 -5.6 8.3 -11.2 21.4 -26.4 33 -43.8 39.6 -59.7 1.3 -3 2.9 -6.8 3.6 -8.5 3.1 -7 6.5 -23.5 6.5 -31.2 0 -5.3 -1.3 -7.6 -12 -21.9 -15.7 -21 -38 -44.8 -83.9 -89.6 -9.4 -9.2 -17.1 -17.2 -17.1 -17.8 0 -2.1 32.1 15.3 136.7 74.3 9 5.1 18 10.1 20 11.2 2.1 1.1 10.3 5.6 18.3 9.9 28.6 15.6 32.7 17.8 44.5 23.7 6.6 3.3 14.9 7.3 18.5 8.9 3.6 1.5 12.4 5.4 19.5 8.5 7.2 3.1 16 6.7 19.6 8 3.7 1.3 8.2 3 10 3.8 9.2 4.2 40.8 13 64.2 17.8 13.4 2.8 17.7 3.2 35.7 3.6 21.6 0.5 31.7 -0.4 55 -4.7 22.5 -4.2 40.7 -10.9 55.1 -20.3 9.9 -6.4 15.9 -12.6 19.6 -20.1 l2.6 -5.4 -1.8 -4.8 c-1.9 -4.9 -10.6 -14.4 -17.9 -19.4 -2 -1.4 -4.9 -3.4 -6.3 -4.5 -12.7 -9.5 -48.9 -28.5 -70.3 -36.8 -27.6 -10.7 -34.2 -12.2 -51.3 -11.4 -14.6 0.7 -30.2 4.4 -56.7 13.5 -30.1 10.4 -70.4 25.3 -71.7 26.6 -0.3 0.3 0.2 1.5 1.3 2.7 2.9 3.2 27 18.9 36 23.4 4.3 2.2 8.1 4.2 8.4 4.6 0.3 0.3 2.8 1.3 5.5 2.3 2.8 1.1 7.1 2.9 9.6 4.2 6.4 3.2 35.7 12.6 52.4 16.8 12.2 3.1 30.4 6.6 55.3 10.6 3.9 0.7 7.2 1.5 7.2 1.9 0 1.8 -19.9 6.1 -28.6 6.1 -3.7 0 -4.4 -0.3 -4.4 -2 0 -1.7 0.7 -2 4.8 -2.1 2.6 -0.1 6.1 -0.5 7.7 -0.8 2.7 -0.7 2.5 -0.8 -2.5 -1.5 -6.3 -0.9 -30.1 -5.7 -40.5 -8.1 -43 -10.1 -80.9 -26.4 -109.2 -47 -8.1 -6 -8.2 -6 -8.2 -10.5 -0.1 -5.3 -3 -3.7 25.9 -14.3 61.3 -22.6 85.8 -29.4 108.6 -30.4 16.9 -0.8 24.6 0.7 48.4 9.5 18 6.6 45.6 19.5 58.4 27.3 4.3 2.6 4.6 2.5 4.6 -2.3 -0.1 -5.1 0.9 -4.3 -19.6 -16.6 -38.3 -22.9 -70.8 -35.2 -93.6 -35.2 -6.2 0 -7.8 -0.3 -7.8 -1.5 0 -4.8 25.2 -2.3 46.1 4.6 25.6 8.5 66.5 30.2 95.4 50.6 23.7 16.7 32.9 23.8 40.7 31.5 9 8.8 9.2 10.9 1 20.5 -7.7 9.2 -18 18.8 -27.7 25.9 -8.5 6.2 -9.2 6.7 -20.7 12.9 -25.6 13.8 -62.9 23.1 -101 25.2 -11.3 0.6 -11.8 0.5 -11.8 -1.4 0 -1.8 0.9 -2 11.3 -2.6 23.7 -1.4 56.8 -7.8 70.2 -13.6 1.1 -0.5 5.5 -2.3 9.7 -4.1 8.3 -3.5 10.8 -5.4 9.1 -7.1 -1.7 -1.7 -7.6 -1.2 -15.8 1.4 -27.6 8.9 -71.3 12.8 -101.6 9.3 -13.8 -1.7 -38.1 -6.4 -51.4 -10 -19.8 -5.4 -53.6 -17.6 -72.6 -26.2 -10.3 -4.6 -36.7 -17.6 -42.9 -21.1 -1.9 -1 -13.5 -7.5 -25.7 -14.3 -12.3 -6.8 -22.3 -12.7 -22.3 -13.2 0 -0.4 -0.7 -0.8 -1.5 -0.8 -0.9 0 -14.3 -7 -29.8 -15.6 -30.1 -16.7 -35.3 -19.6 -43.2 -23.9 -2.7 -1.5 -7.9 -4.3 -11.5 -6.3 -3.6 -2 -8.7 -4.8 -11.3 -6.4 -2.6 -1.5 -5 -2.8 -5.2 -2.8 -0.3 0 -2.6 -1.3 -5.2 -2.8 -2.7 -1.6 -7.9 -4.6 -11.8 -6.6 l-7 -3.8 23.1 23.4 c23.5 23.7 33.1 33.9 37.5 39.4 1.3 1.7 5.8 7.3 10 12.5 4.2 5.2 10.5 13.6 13.9 18.7 l6.3 9.3 -0.6 10.2 c-1.3 21.5 -8.3 41.1 -22.7 63.8 -7.4 11.6 -12.3 18.6 -19.4 27.3 l-4 4.9 8.9 -5.8 c17.5 -11.2 37.9 -28.7 57.4 -49.1 6.5 -6.8 12.3 -12.4 13 -12.4 0.6 0 1.1 -0.7 1.1 -1.5 0 -1.8 9.7 -14.5 11.1 -14.5 0.5 0 0.9 -0.5 0.9 -1.2 0 -0.6 2.1 -4.2 4.7 -8 4.5 -6.6 4.8 -6.8 8.9 -6.8 2.8 0 7.5 1.4 14.1 4.4 23.4 10.4 43.4 18.1 66.3 25.4 41.5 13.4 71.5 20.6 111.8 26.9 9.4 1.4 11.2 2 11.2 3.5 0 1.1 -0.7 1.8 -1.8 1.8 -2.9 0 -42.9 -6.8 -55.7 -9.4 -39.7 -8.3 -92.3 -24.9 -121.7 -38.5 -3.6 -1.7 -6.9 -3.1 -7.2 -3.1 -0.3 0 -4.2 -1.8 -8.6 -3.9 -8.8 -4.3 -8.9 -4.3 -12.8 1.8 -12.1 19.2 -44.2 53.6 -66.7 71.6 -2.7 2.2 -5.2 4.3 -5.5 4.6 -0.7 0.9 -12.5 9.3 -19 13.6 -3 2 -6.8 4.5 -8.3 5.5 -2.4 1.6 -16.1 7.8 -17.3 7.8 -0.2 0 -0.4 -0.5 -0.4 -1.1z"/>
  <path d="M365.5 173.5 c-30.5 -4.9 -61.2 -15.9 -99.4 -35.7 -8.6 -4.4 -16 -8.4 -16.6 -8.8 -0.5 -0.4 -3 -1.9 -5.5 -3.3 -2.5 -1.3 -6.7 -3.7 -9.5 -5.3 -2.7 -1.5 -5.2 -3.1 -5.5 -3.4 -0.3 -0.4 -1 -0.9 -1.7 -1.1 -3.5 -1.2 -48.2 -30.6 -48.3 -31.8 0 -2.7 7.4 0.1 17.9 6.8 15.2 9.8 31.7 19.9 38 23.4 3 1.7 9.1 5.2 13.5 7.9 7.6 4.7 55.3 28.8 56.9 28.8 0.4 0 2.6 0.9 5 2 14.3 6.7 48.7 16.2 63.5 17.6 6.1 0.6 7.2 1 7.2 2.5 0 2.3 -3.4 2.4 -15.5 0.4z"/>
  <path d="M448.4 114.9 c-9.4 -2.9 -20.8 -14.1 -18.4 -17.9 1.5 -2.4 16.3 -1.9 22 0.7 8.8 4 20.3 15.4 18.5 18.4 -1.1 1.6 -15.7 0.9 -22.1 -1.2z m13.6 -2.8 c0 -1.7 -8.2 -8.2 -12.7 -10.2 -5.4 -2.3 -12.3 -3.5 -12.3 -2.2 0 2.8 6.9 8.5 13 10.7 6.8 2.5 12 3.2 12 1.7z"/>
  <path d="M194 85.8 c0 -1.8 2.9 -2.8 7.9 -2.8 12.1 0 39.3 -7.1 83.6 -21.6 52.8 -17.4 58.9 -19.2 74.9 -21.9 11.7 -2 13.6 -1.9 13.6 0.3 0 1.5 -1.4 2 -8.3 3 -14.8 2.1 -29.3 6.5 -84.7 25.1 -37.3 12.6 -59.4 18 -76.2 18.9 -9.2 0.4 -10.8 0.3 -10.8 -1z"/>
 </g>
 <g fill="#ebc75f">
  <path fill="url(#lg0)" d="M69 258.6 c0 -0.3 3.6 -4.8 7.9 -10 31.3 -37.6 46 -66.8 48.7 -96.3 l0.7 -7.2 -6.3 -9.3 c-3.5 -5.1 -9.7 -13.5 -13.9 -18.7 -4.2 -5.2 -8.7 -10.8 -10 -12.5 -6.7 -8.5 -40.9 -43.5 -65.4 -66.8 -8.6 -8.3 -15.5 -15.3 -15.3 -15.6 0.3 -0.2 3.6 1.3 7.3 3.3 7.8 4.4 12.5 6.9 27.8 15.2 14 7.7 20.2 11.1 24 13.3 3 1.7 7 4 19.5 10.8 10.9 5.9 60 33.1 88.5 48.9 14.9 8.3 29.7 16.5 33 18.3 27.8 15.4 60.9 29.8 93 40.3 21 7 25.1 8.1 44.4 12.2 31.7 6.9 54 7.9 86.1 4 20.8 -2.5 48.6 -9.7 60.2 -15.6 2 -1 4 -1.9 4.4 -1.9 1.1 0 -1.8 3 -3 3 -0.6 0 -2.2 0.9 -3.6 2 l-2.5 2 2.8 0 c1.5 0 3 0.7 3.3 1.5 0.7 1.8 3 2 3.7 0.3 0.4 -1 0.8 -0.9 1.6 0.2 1 1.3 1.2 1.3 2.1 0 0.7 -1.1 1 -1.2 1 -0.2 0 0.9 0.7 1.1 2.3 0.7 2.2 -0.6 2.2 -0.6 -0.2 1.5 -1.9 1.6 -2.6 1.8 -3.2 0.8 -0.6 -0.9 -1 -0.8 -1.5 0.5 -0.6 1.7 -19.9 11.7 -22.6 11.7 -0.8 0 -1.8 0.4 -2.3 0.9 -2.7 2.4 -31.5 9.4 -47.5 11.5 -6.3 0.9 -18.3 2 -26.6 2.6 -16.3 1.2 -17.1 1.1 -54.9 -5.6 -46 -8.2 -105.1 -26.8 -152.8 -48 -5.4 -2.4 -10.4 -4.4 -11.1 -4.4 -0.7 0 -3.5 3.3 -6.2 7.3 -20.1 29.6 -58.2 67.1 -87.4 85.9 -14.5 9.4 -26 15.3 -26 13.4z"/>
  <path fill="url(#lg0)" d="M368.9 173.5 c-17.1 -2.4 -47.8 -11.1 -61.6 -17.5 -2.4 -1.1 -4.6 -2 -5 -2 -1.6 0 -49.3 -24.1 -56.9 -28.8 -4.4 -2.7 -10.5 -6.2 -13.5 -7.9 -6.6 -3.6 -31 -18.8 -43.4 -26.9 l-9 -5.9 16.5 -0.6 c22.8 -0.8 39.6 -4.7 82 -19 54.7 -18.4 66.9 -22.1 83.5 -24.9 30 -5.1 54.4 -0.1 92.6 19.1 16.3 8.1 50.9 29.3 50.9 31.1 0 0.4 -0.9 0.3 -2 -0.4 -1 -0.7 -2.2 -1 -2.5 -0.7 -1.2 1.3 0.9 3.9 4.8 5.8 3 1.5 3.6 2.1 2.1 2.1 -1.2 0 -2.7 -0.7 -3.4 -1.5 -0.7 -0.8 -1.6 -1.5 -2.1 -1.5 -0.5 0 -0.9 0.7 -0.9 1.5 0 0.8 -0.5 1.5 -1.1 1.5 -0.5 0 -0.7 0.5 -0.3 1.1 0.4 0.7 2.3 0.9 4.8 0.6 2.2 -0.3 3.5 -0.4 2.9 -0.1 -0.7 0.3 -1.3 1.3 -1.3 2.1 0 1.5 -2.3 1.5 -6.3 -0.2 -1.3 -0.6 -1.6 -0.4 -1.1 0.9 0.3 0.9 1.2 1.6 1.9 1.6 0.7 0 1.8 0.7 2.5 1.5 0.7 0.8 2.1 1.5 3.1 1.5 1.1 0 1.9 0.5 1.9 1 0 1.8 -2 1 -13.3 -5.4 -30.2 -17.1 -54.5 -28.1 -80.7 -36.4 -27.8 -8.8 -51.7 -4.2 -135 26.5 -26.3 9.6 -26 9.5 -25.9 11.3 0 0.8 3.7 4.2 8.2 7.5 28.3 20.6 66.3 37 109.2 47 18.4 4.3 52.2 10.5 57.2 10.5 4.6 0 2.1 1.7 -4.9 3.3 -16.3 3.8 -36.4 4.6 -53.9 2.2z"/>
  <path fill="url(#lg0)" d="M457.5 116.2 c-1.1 -0.1 -5.1 -1.2 -9 -2.4 -6 -1.8 -7.7 -2.9 -12.2 -7.7 -6.7 -7.1 -6.7 -8.6 -0.5 -10 4.2 -1.1 5.5 -0.9 12 1.3 8 2.7 12.7 5.8 16.8 11.1 3.4 4.5 2.9 6.8 -1.6 7.5 -1.9 0.3 -4.4 0.4 -5.5 0.2z"/>
 </g>
</svg>